<svg xmlns="http://www.w3.org/2000/svg" viewBox="0 0 24 24">
<rect width="24" height="24" rx="6" fill="#5E4635"/>
<g fill="none" stroke="#FBF6EF" stroke-width="1.3" stroke-linecap="round">
<path d="M12 20V6"/>
<path d="M12 6C12 6 8.5 7 8.5 9.6C8.5 9.6 12 9.6 12 6Z"/>
<path d="M12 6C12 6 15.5 7 15.5 9.6C15.5 9.6 12 9.6 12 6Z"/>
<path d="M12 9.6C12 9.6 8.5 10.6 8.5 13.2C8.5 13.2 12 13.2 12 9.6Z"/>
<path d="M12 9.6C12 9.6 15.5 10.6 15.5 13.2C15.5 13.2 12 13.2 12 9.6Z"/>
<path d="M12 13.2C12 13.2 9.3 14.2 9.3 16.4C9.3 16.4 12 16.4 12 13.2Z"/>
<path d="M12 13.2C12 13.2 14.7 14.2 14.7 16.4C14.7 16.4 12 16.4 12 13.2Z"/>
</g>
</svg>
